<svg xmlns="http://www.w3.org/2000/svg" viewBox="0 0 120 50" width="120" height="50">
  <!-- Spoiler support -->
  <rect x="12" y="20" width="4" height="15" fill="#7f8c8d" />
  <!-- Spoiler -->
  <rect x="3" y="16" width="15" height="4" rx="1" fill="#c0392b" />
  <!-- Car Body -->
  <path d="M10,35 L15,22 C17,17 25,12 35,12 L75,12 C82,12 90,17 95,22 L110,25 C115,27 115,35 110,35 Z" fill="#e74c3c" />
  <!-- Cabin/Windows -->
  <path d="M38,14 L68,14 C73,14 78,18 80,22 L33,22 Z" fill="#34495e" />
  <!-- Wheels -->
  <circle cx="32" cy="35" r="10" fill="#2c3e50" stroke="#bdc3c7" stroke-width="2" />
  <circle cx="32" cy="35" r="4" fill="#7f8c8d" />
  <circle cx="85" cy="35" r="10" fill="#2c3e50" stroke="#bdc3c7" stroke-width="2" />
  <circle cx="85" cy="35" r="4" fill="#7f8c8d" />
  <!-- Detail stripes -->
  <path d="M48,27 L70,27" stroke="#ffffff" stroke-width="3" stroke-linecap="round" />
  <path d="M51,31 L65,31" stroke="#ffffff" stroke-width="2" stroke-linecap="round" />
</svg>
